<?xml version="1.0" encoding="iso-8859-1"?>
<!-- Uploaded to: SVG Repo, www.svgrepo.com, Generator: SVG Repo Mixer Tools -->
<svg height="800px" width="800px" version="1.1" id="Layer_1" xmlns="http://www.w3.org/2000/svg" xmlns:xlink="http://www.w3.org/1999/xlink" 
	 viewBox="0 0 512.001 512.001" xml:space="preserve">
<path style="fill:#385C8E;" d="M374.515,203.062c-10.473,0-18.963,8.49-18.963,18.963H156.443c0-10.473-8.49-18.963-18.963-18.963
	s-18.963,8.49-18.963,18.963v118.519c0,8.162,5.224,15.408,12.967,17.988l118.517,39.506c1.946,0.65,3.972,0.973,5.996,0.973
	c2.025,0,4.05-0.324,5.996-0.973l118.517-39.506c7.743-2.58,12.967-9.827,12.967-17.988V222.025
	C393.478,211.552,384.987,203.062,374.515,203.062z"/>
<path style="fill:#1D3366;" d="M374.515,203.062c-10.473,0-18.963,8.49-18.963,18.963H256v176.986c2.024,0,4.049-0.324,5.993-0.973
	l118.517-39.506c7.743-2.58,12.967-9.827,12.967-17.988V222.025C393.478,211.552,384.987,203.062,374.515,203.062z"/>
<g>
	<path style="fill:#F2D23D;" d="M493.032,357.925c-10.473,0-18.963,8.492-18.963,18.963v31.605c0,10.474,8.49,18.963,18.963,18.963
		s18.963-8.489,18.963-18.963v-31.605C511.995,366.415,503.505,357.925,493.032,357.925z"/>
	<path style="fill:#F2D23D;" d="M493.032,163.557c-10.473,0-18.963,8.489-18.963,18.963v111.88c0,10.473,8.49,18.963,18.963,18.963
		s18.963-8.49,18.963-18.963V182.52C511.995,172.046,503.505,163.557,493.032,163.557z"/>
</g>
<path style="fill:#1D3366;" d="M499.028,164.531L261.994,85.519c-3.891-1.297-8.101-1.297-11.992,0L12.967,164.531
	C5.224,167.111,0,174.357,0,182.52c0,8.162,5.224,15.409,12.967,17.989l237.035,79.012c1.946,0.65,3.972,0.973,5.996,0.973
	c2.025,0,4.05-0.325,5.996-0.973l236.845-78.948c5.547-1.789,10.198-6.103,12.184-12.055
	C514.334,178.58,508.965,167.842,499.028,164.531z"/>
<path style="fill:#385C8E;" d="M499.028,164.531L261.994,85.519c-1.944-0.649-3.97-0.973-5.993-0.973v195.949
	c2.024-0.001,4.049-0.325,5.993-0.973l236.845-78.948c5.547-1.789,10.198-6.104,12.184-12.055
	C514.334,178.58,508.965,167.842,499.028,164.531z"/>
</svg>